<svg width="150" height="29" viewBox="0 0 150 29" fill="none" xmlns="http://www.w3.org/2000/svg">
<path d="M8.09375 6.6875C7.30208 6.72917 6.63542 7.03125 6.09375 7.59375C5.57292 8.15625 5.19792 8.80208 4.96875 9.53125C4.73958 10.2396 4.625 10.9688 4.625 11.7188C4.625 12.4688 4.72917 13.2083 4.9375 13.9375C5.16667 14.6667 5.55208 15.3125 6.09375 15.875C6.63542 16.4167 7.30208 16.7083 8.09375 16.75H18.4062C19.7188 16.875 20.4375 17.5938 20.5625 18.9062C20.5417 19.4896 20.3229 19.9792 19.9062 20.375C19.4896 20.75 18.9896 20.9375 18.4062 20.9375H8.4375H7C5.54167 20.8542 4.34375 20.3021 3.40625 19.2812C2.46875 18.2396 1.79167 17.0625 1.375 15.75C0.979167 14.4375 0.78125 13.0938 0.78125 11.7188C0.78125 10.6979 0.895833 9.6875 1.125 8.6875C1.35417 7.6875 1.70833 6.73958 2.1875 5.84375C2.6875 4.92708 3.34375 4.14583 4.15625 3.5C4.98958 2.85417 5.9375 2.52083 7 2.5H7.59375H18.4062C19.7188 2.625 20.4375 3.34375 20.5625 4.65625C20.5625 5.23958 20.3438 5.72917 19.9062 6.125C19.4896 6.5 18.9896 6.6875 18.4062 6.6875H8.09375ZM25.5312 6.375C26.1146 6.375 26.6146 6.57292 27.0312 6.96875C27.4479 7.34375 27.6667 7.82292 27.6875 8.40625V11.5625C27.6667 12.4167 27.7188 13.2083 27.8438 13.9375C27.9896 14.6458 28.3229 15.2812 28.8438 15.8438C29.3646 16.4062 30.0208 16.7083 30.8125 16.75H39.1562V8.46875C39.1562 7.88542 39.3646 7.40625 39.7812 7.03125C40.2188 6.63542 40.7292 6.4375 41.3125 6.4375C42.5625 6.54167 43.25 7.21875 43.375 8.46875V18.6562C43.375 20.3229 43.1458 21.8958 42.6875 23.375C42.2708 24.6875 41.5833 25.7917 40.625 26.6875C39.6875 27.6042 38.4896 28.1042 37.0312 28.1875H26.2188C25.6562 28.1667 25.1771 27.9583 24.7812 27.5625C24.4062 27.1875 24.2083 26.7188 24.1875 26.1562C24.1875 25.5729 24.375 25.0729 24.75 24.6562C25.1458 24.2396 25.6354 24.0208 26.2188 24H35.9688C36.7604 23.9583 37.4167 23.6562 37.9375 23.0938C38.4583 22.5312 38.7917 21.875 38.9375 21.125C38.9583 21.0625 38.9688 21 38.9688 20.9375H29.75C28.2917 20.8542 27.0833 20.3646 26.125 19.4688C25.1875 18.5521 24.5104 17.4375 24.0938 16.125C23.6979 14.8125 23.4896 13.4167 23.4688 11.9375V8.40625C23.4896 7.84375 23.6979 7.375 24.0938 7C24.4896 6.60417 24.9688 6.39583 25.5312 6.375ZM51.6875 4.03125V15.9375C51.6875 16.4583 51.9583 16.7292 52.5 16.75H63.4375C63.8333 16.7292 64.1771 16.5625 64.4688 16.25C64.7604 15.9167 64.9688 15.5417 65.0938 15.125C65.2396 14.6875 65.3125 14.25 65.3125 13.8125C65.3125 13.3958 65.2396 12.9792 65.0938 12.5625C64.9688 12.125 64.7604 11.75 64.4688 11.4375C64.1771 11.1042 63.8333 10.9375 63.4375 10.9375H55.4375C54.8542 10.9375 54.3542 10.7396 53.9375 10.3438C53.5417 9.92708 53.3438 9.42708 53.3438 8.84375C53.3438 8.26042 53.5521 7.77083 53.9688 7.375C54.3646 6.95833 54.8542 6.75 55.4375 6.75H63.3125C64.7708 6.77083 65.9688 7.1875 66.9062 8C67.8646 8.79167 68.5417 9.69792 68.9375 10.7188C69.3542 11.7188 69.5625 12.7604 69.5625 13.8438C69.5625 14.8854 69.3542 15.9167 68.9375 16.9375C68.5208 17.9375 67.8438 18.8438 66.9062 19.6562C65.9688 20.4479 64.5833 20.875 62.75 20.9375H49.625C49.0417 20.9375 48.5417 20.75 48.125 20.375C47.7083 19.9792 47.4896 19.4896 47.4688 18.9062V4.03125C47.4688 3.44792 47.6771 2.96875 48.0938 2.59375C48.5312 2.19792 49.0417 2 49.625 2C50.875 2.10417 51.5625 2.78125 51.6875 4.03125ZM79.3438 20.9375C77.5104 20.875 76.125 20.4479 75.1875 19.6562C74.25 18.8438 73.5729 17.9375 73.1562 16.9375C72.7396 15.9167 72.5312 14.8854 72.5312 13.8438C72.5312 12.7604 72.7292 11.7188 73.125 10.7188C73.5417 9.69792 74.2188 8.79167 75.1562 8C76.1146 7.1875 77.3229 6.77083 78.7812 6.75H90.6562C91.2396 6.75 91.7292 6.94792 92.125 7.34375C92.5417 7.71875 92.75 8.17708 92.75 8.71875C92.75 9.28125 92.5417 9.76042 92.125 10.1562C91.7292 10.5312 91.2396 10.7188 90.6562 10.7188H78.9688C78.5104 10.7188 78.1042 10.875 77.75 11.1875C77.4167 11.5 77.1667 11.9062 77 12.4062C76.8542 12.9062 76.7812 13.3958 76.7812 13.875C76.7812 14.3958 76.8542 14.9062 77 15.4062C77.1667 15.9062 77.4167 16.3125 77.75 16.625C78.1042 16.9167 78.5104 17.0729 78.9688 17.0938H90.6562C91.2396 17.0938 91.7292 17.2812 92.125 17.6562C92.5417 18.0312 92.75 18.4792 92.75 19C92.75 19.5417 92.5417 20 92.125 20.375C91.7292 20.75 91.2396 20.9375 90.6562 20.9375H79.3438ZM92.375 13.7812C92.375 14.1771 92.1979 14.5208 91.8438 14.8125C91.5312 15.0833 91.1354 15.2188 90.6562 15.2188H80.4375C79.9583 15.2188 79.5521 15.0833 79.2188 14.8125C78.8854 14.5208 78.7188 14.1771 78.7188 13.7812C78.7188 13.4062 78.8854 13.0729 79.2188 12.7812C79.5521 12.5104 79.9583 12.375 80.4375 12.375H90.6562C91.1354 12.375 91.5417 12.5208 91.875 12.8125C92.2083 13.0833 92.375 13.4062 92.375 13.7812ZM97 10.6875C97.3958 9.6875 98.0625 8.79167 99 8C99.9583 7.1875 101.167 6.77083 102.625 6.75H114.375C114.958 6.75 115.448 6.95833 115.844 7.375C116.26 7.77083 116.469 8.26042 116.469 8.84375C116.469 9.42708 116.26 9.92708 115.844 10.3438C115.448 10.7396 114.958 10.9375 114.375 10.9375H102.5C102.104 10.9375 101.76 11.1042 101.469 11.4375C101.177 11.75 100.948 12.125 100.781 12.5625C100.635 13 100.562 13.4167 100.562 13.8125V19.2812C100.438 20.5312 99.75 21.2083 98.5 21.3125C97.9167 21.3125 97.4062 21.125 96.9688 20.75C96.5521 20.3542 96.3438 19.8646 96.3438 19.2812V13.8438H96.375C96.375 12.7604 96.5833 11.7083 97 10.6875ZM121.719 6.4375C122.281 6.45833 122.76 6.66667 123.156 7.0625C123.552 7.4375 123.76 7.90625 123.781 8.46875V19.2812C123.656 20.5312 122.969 21.2083 121.719 21.3125C121.135 21.3125 120.625 21.125 120.188 20.75C119.771 20.3542 119.562 19.8646 119.562 19.2812V8.46875C119.583 7.88542 119.802 7.40625 120.219 7.03125C120.635 6.63542 121.135 6.4375 121.719 6.4375ZM119.094 2.375C119.094 1.79167 119.344 1.29167 119.844 0.875C120.344 0.458333 120.948 0.25 121.656 0.25C122.365 0.25 122.969 0.458333 123.469 0.875C123.969 1.29167 124.219 1.79167 124.219 2.375C124.219 2.97917 123.969 3.48958 123.469 3.90625C122.969 4.32292 122.365 4.53125 121.656 4.53125C120.948 4.53125 120.344 4.32292 119.844 3.90625C119.344 3.48958 119.094 2.97917 119.094 2.375ZM145.062 19.2812V11.75C145.062 11.2292 144.792 10.9583 144.25 10.9375H133.312C132.917 10.9583 132.573 11.1354 132.281 11.4688C131.99 11.7812 131.771 12.1562 131.625 12.5938C131.5 13.0104 131.438 13.4375 131.438 13.875C131.438 14.2917 131.5 14.7188 131.625 15.1562C131.771 15.5729 131.99 15.9479 132.281 16.2812C132.573 16.5938 132.917 16.75 133.312 16.75H141.312C141.896 16.75 142.385 16.9583 142.781 17.375C143.198 17.7708 143.406 18.2604 143.406 18.8438C143.406 19.4271 143.198 19.9167 142.781 20.3125C142.385 20.7292 141.896 20.9375 141.312 20.9375H133.438C131.979 20.9167 130.771 20.5104 129.812 19.7188C128.875 18.9062 128.198 18 127.781 17C127.385 15.9792 127.188 14.9271 127.188 13.8438C127.188 12.8021 127.396 11.7812 127.812 10.7812C128.229 9.76042 128.906 8.85417 129.844 8.0625C130.781 7.25 132.167 6.8125 134 6.75H147.125C147.708 6.75 148.208 6.94792 148.625 7.34375C149.042 7.71875 149.26 8.19792 149.281 8.78125V19.2812C149.281 19.8646 149.062 20.3542 148.625 20.75C148.208 21.125 147.708 21.3125 147.125 21.3125C145.875 21.2083 145.188 20.5312 145.062 19.2812Z" fill="#F4F4F4"/>
</svg>
