<svg width="20" height="20" viewBox="0 0 20 20" fill="none" xmlns="http://www.w3.org/2000/svg">
<rect x="0.5" y="0.5" width="19" height="19" rx="4.5" fill="#EFEBF4" fill-opacity="0.18" stroke="url(#paint0_linear_235_69)"/>
<path d="M16.1251 13.1789L10.288 5.17188C10.2046 5.05735 10.1086 5 10.0001 5C9.89155 5 9.79543 5.05735 9.71199 5.17188L3.87529 13.1789C3.79168 13.2936 3.75 13.4252 3.75 13.5742C3.75 13.723 3.79181 13.8548 3.87529 13.9693L4.50142 14.8282C4.5849 14.9427 4.68098 14.9999 4.78952 14.9999C4.89805 14.9999 4.99413 14.9427 5.07762 14.8282L10.0001 8.07557L14.9227 14.8286C15.0062 14.9431 15.1023 15 15.2107 15C15.3194 15 15.4154 14.9428 15.4989 14.8286L16.1251 13.9694C16.2085 13.8549 16.25 13.723 16.25 13.5742C16.25 13.4252 16.2086 13.2934 16.1251 13.1789Z" fill="url(#paint1_linear_235_69)"/>
<defs>
<linearGradient id="paint0_linear_235_69" x1="0" y1="10" x2="21.625" y2="10" gradientUnits="userSpaceOnUse">
<stop stop-color="#2C1445"/>
<stop offset="1" stop-color="#EB09E1"/>
</linearGradient>
<linearGradient id="paint1_linear_235_69" x1="3.75" y1="13.75" x2="16.25" y2="13.375" gradientUnits="userSpaceOnUse">
<stop stop-color="#2C1445"/>
<stop offset="1" stop-color="#EB09E1"/>
</linearGradient>
</defs>
</svg>
