<svg width="50" height="50" viewBox="0 0 50 50" fill="none" xmlns="http://www.w3.org/2000/svg">
<rect x="0.5" y="0.5" width="49" height="49" rx="9.5" fill="#EFEBF4" fill-opacity="0.18" stroke="url(#paint0_linear_233_68)"/>
<path d="M40.3129 32.9472L25.7199 12.9297C25.5114 12.6434 25.2716 12.5 25.0002 12.5C24.7289 12.5 24.4886 12.6434 24.28 12.9297L9.68824 32.9472C9.47919 33.234 9.375 33.563 9.375 33.9354C9.375 34.3076 9.47952 34.6371 9.68824 34.9233L11.2535 37.0704C11.4623 37.3568 11.7025 37.4999 11.9738 37.4999C12.2451 37.4999 12.4853 37.3568 12.694 37.0704L25.0002 20.1889L37.3068 37.0715C37.5154 37.3578 37.7557 37.5 38.0266 37.5C38.2984 37.5 38.5386 37.3569 38.7472 37.0715L40.3127 34.9234C40.5214 34.6373 40.625 34.3076 40.625 33.9355C40.6251 33.563 40.5215 33.2335 40.3129 32.9472Z" fill="url(#paint1_linear_233_68)"/>
<defs>
<linearGradient id="paint0_linear_233_68" x1="0" y1="25" x2="54.0625" y2="25" gradientUnits="userSpaceOnUse">
<stop stop-color="#2C1445"/>
<stop offset="1" stop-color="#EB09E1"/>
</linearGradient>
<linearGradient id="paint1_linear_233_68" x1="9.375" y1="34.375" x2="40.625" y2="33.4375" gradientUnits="userSpaceOnUse">
<stop stop-color="#2C1445"/>
<stop offset="1" stop-color="#EB09E1"/>
</linearGradient>
</defs>
</svg>
