<svg width="40" height="40" viewBox="0 0 40 40" fill="none" xmlns="http://www.w3.org/2000/svg">
<g clip-path="url(#clip0_91_259)">
<path d="M5 35L7.75 28.6666C5.6461 25.68 4.70445 22.0283 5.10174 18.3968C5.49904 14.7652 7.20798 11.4035 9.90785 8.94248C12.6077 6.48145 16.1129 5.0903 19.7656 5.03011C23.4184 4.96992 26.9675 6.24483 29.747 8.61557C32.5265 10.9863 34.3452 14.2899 34.862 17.9064C35.3787 21.5229 34.5579 25.2036 32.5535 28.2579C30.5492 31.3122 27.4991 33.53 23.9757 34.4951C20.4522 35.4603 16.6977 35.1064 13.4167 33.5L5 35" stroke="url(#paint0_linear_91_259)" stroke-linecap="round" stroke-linejoin="round"/>
<path d="M15 16.6666C15 16.8876 15.0878 17.0996 15.2441 17.2559C15.4004 17.4122 15.6123 17.5 15.8333 17.5C16.0543 17.5 16.2663 17.4122 16.4226 17.2559C16.5789 17.0996 16.6667 16.8876 16.6667 16.6666V15C16.6667 14.7789 16.5789 14.567 16.4226 14.4107C16.2663 14.2544 16.0543 14.1666 15.8333 14.1666C15.6123 14.1666 15.4004 14.2544 15.2441 14.4107C15.0878 14.567 15 14.7789 15 15V16.6666ZM15 16.6666C15 18.8768 15.878 20.9964 17.4408 22.5592C19.0036 24.122 21.1232 25 23.3333 25H25C25.221 25 25.433 24.9122 25.5893 24.7559C25.7455 24.5996 25.8333 24.3876 25.8333 24.1666C25.8333 23.9456 25.7455 23.7336 25.5893 23.5774C25.433 23.4211 25.221 23.3333 25 23.3333H23.3333C23.1123 23.3333 22.9004 23.4211 22.7441 23.5774C22.5878 23.7336 22.5 23.9456 22.5 24.1666C22.5 24.3876 22.5878 24.5996 22.7441 24.7559C22.9004 24.9122 23.1123 25 23.3333 25" stroke="url(#paint1_linear_91_259)" stroke-linecap="round" stroke-linejoin="round"/>
</g>
<defs>
<linearGradient id="paint0_linear_91_259" x1="4" y1="20" x2="36" y2="20.0291" gradientUnits="userSpaceOnUse">
<stop stop-color="#2C1445"/>
<stop offset="0.541667" stop-color="#A841FA"/>
<stop offset="1" stop-color="#EB09E1"/>
</linearGradient>
<linearGradient id="paint1_linear_91_259" x1="14" y1="17.9999" x2="27" y2="17.9999" gradientUnits="userSpaceOnUse">
<stop stop-color="#2C1445"/>
<stop offset="0.5" stop-color="#A841FA"/>
<stop offset="1" stop-color="#EB09E1"/>
</linearGradient>
<clipPath id="clip0_91_259">
<rect width="40" height="40" fill="white"/>
</clipPath>
</defs>
</svg>
